<svg xmlns="http://www.w3.org/2000/svg" xmlns:xlink="http://www.w3.org/1999/xlink" viewBox="0 0 1920 1080"><defs><style>.cls-1{fill:url(#linear-gradient);}.cls-2{fill:url(#linear-gradient-2);}.cls-3{fill:url(#linear-gradient-3);}.cls-4{fill:url(#linear-gradient-4);}.cls-5{fill:url(#linear-gradient-5);}.cls-6{fill:url(#linear-gradient-6);}.cls-7{font-size:287.2px;font-family:Freshman, Freshman;letter-spacing:0.01em;}.cls-8{letter-spacing:0.01em;}.cls-9{letter-spacing:0.01em;}.cls-10{fill:url(#linear-gradient-7);}</style><linearGradient id="linear-gradient" x1="667.17" y1="712.24" x2="601.46" y2="339.56" gradientUnits="userSpaceOnUse"><stop offset="0.02" stop-color="#d8bd6c"/><stop offset="1" stop-color="#9f41cb"/></linearGradient><linearGradient id="linear-gradient-2" x1="981.14" y1="707.1" x2="917.27" y2="344.86" xlink:href="#linear-gradient"/><linearGradient id="linear-gradient-3" x1="907.61" y1="694.82" x2="848.06" y2="357.1" xlink:href="#linear-gradient"/><linearGradient id="linear-gradient-4" x1="770.29" y1="719.3" x2="700.26" y2="322.13" xlink:href="#linear-gradient"/><linearGradient id="linear-gradient-5" x1="843.25" y1="731.41" x2="768.95" y2="310" xlink:href="#linear-gradient"/><linearGradient id="linear-gradient-6" x1="835.19" y1="682.87" x2="779.87" y2="369.09" xlink:href="#linear-gradient"/><linearGradient id="linear-gradient-7" x1="114.09" y1="520.7" x2="1821.72" y2="520.7" gradientUnits="userSpaceOnUse"><stop offset="0.02" stop-color="#274293"/><stop offset="1" stop-color="#60be34"/></linearGradient></defs><title>PJLYSFINAL</title><g id="Layer_1" data-name="Layer 1"><path class="cls-1" d="M694.42,707.43h-61V333.92Z"/><path class="cls-2" d="M978.82,707.51h-61l61-373.49Q978.79,520.76,978.82,707.51Z"/><path class="cls-3" d="M978.77,334.06,775.05,707.43h61Z"/><path class="cls-4" d="M837.16,707.51h-61L633.4,333.92Z"/><path class="cls-5" d="M978.82,707.51h-61L633.4,333.92C631.15,331,938,663.86,978.82,707.51Z"/><path class="cls-6" d="M978.77,334,634.45,707.51h61Z"/></g><g id="Layer_2" data-name="Layer 2"><text></text><text class="cls-7" transform="translate(114.79 704.92) scale(1.23 1.54)"><tspan xml:space="preserve">PJ    L</tspan><tspan class="cls-8" x="928.22" y="0">Y</tspan><tspan class="cls-9" x="1206.52" y="0">S</tspan></text><path class="cls-10" d="M296.37,565.15H212.65v56.61h17.66v83.15H114.09V621.77h17.66V419.64H114.09V336.49H296.37l47,59.15v110.8ZM212.65,482h40.27l9.54-11.42V431.5l-9.54-11.86H212.65Z"/><path class="cls-10" d="M568.73,419.64v226.2l-47,59.08H414l-47-58.83V556.75h80.9v53.08l9.54,11.94h20.84l9.54-11.47V419.64H462.75V336.49H586.39v83.15Z"/><path class="cls-10" d="M1119.45,419.64V621.77h53V599.65h66.06V704.92H1020.89V621.77h17.66V419.64h-17.66V336.49h116.22v83.15Z"/><path class="cls-10" d="M1459.63,539v82.79h17.66v83.15H1361.08V621.77h18v-83l-95.73-119.16H1255.8V336.49H1396v83.15h-12l35.33,44.23,35.33-44.23h-12V336.49h135.65v83.15H1555Z"/><path class="cls-10" d="M1731.64,562.94h-86.55l-47-58.71V395.64l47-59.15h129.65l47,59.07v72.29h-80.9V431.47l-9.18-11.83h-43.1L1679,431.49v36.88l9.54,11.42h86.2l47,59.27v107l-47,58.83H1645.09l-47-58.83V575.33H1679v34.5l9.54,11.94h43.1l9.18-11.5V574.88Z"/></g></svg>